<svg version="1.1" id="Layer_1" xmlns="http://www.w3.org/2000/svg" x="0" y="0" width="442" height="68" xml:space="preserve"><path fill="#FFF" d="M47.825 51.024H20.729a3.753 3.753 0 01-3.749-3.748V20.183a3.754 3.754 0 013.749-3.749h27.094c1.001 0 1.942.389 2.65 1.097a3.725 3.725 0 011.099 2.651v27.095a3.751 3.751 0 01-3.747 3.747zm-25.024-5.82h22.95V22.255h-22.95v22.949zm77.584-19.596c-1.214-1.519-2.776-2.479-4.901-2.479-2.038 0-3.99 1.439-3.99 3.397 0 5.076 12.968 2.958 12.968 13.069 0 6.036-4.077 10.312-10.757 10.312-4.511 0-7.807-2.397-10.062-5.876l4.121-3.717c.868 2.318 3.166 4.396 5.899 4.396 2.603 0 4.207-2.038 4.207-4.356 0-3.118-3.123-3.997-5.682-4.916-4.208-1.599-7.287-3.558-7.287-8.234 0-4.996 4.034-9.033 9.542-9.033 2.906 0 6.939 1.319 8.935 3.358l-2.993 4.079zm37.472 4.796h-.087l-7.417 19.105h-2.212l-7.157-19.105h-.086l-2.906 18.705h-6.419l5.509-30.936h4.511l8.068 19.864 7.72-19.864h4.597l4.901 30.936h-6.419l-2.603-18.705zm32.094 19.505c-9.976 0-16.179-7.034-16.179-15.908 0-8.953 6.419-15.828 16.179-15.828s16.178 6.875 16.178 15.828c0 8.874-6.202 15.908-16.178 15.908zm0-25.94c-6.029 0-9.585 4.916-9.585 9.792 0 4.637 2.515 10.353 9.585 10.353s9.585-5.716 9.585-10.353c.001-4.876-3.556-9.792-9.585-9.792zm39.554 25.94c-9.976 0-16.178-7.034-16.178-15.908 0-8.953 6.419-15.828 16.178-15.828s16.179 6.875 16.179 15.828c0 8.874-6.204 15.908-16.179 15.908zm0-25.94c-6.029 0-9.585 4.916-9.585 9.792 0 4.637 2.516 10.353 9.585 10.353 7.07 0 9.585-5.716 9.585-10.353 0-4.876-3.556-9.792-9.585-9.792zm35.564 25.14h-6.376V24.09H232.1v-5.116h19.561v5.116h-6.592v25.019zm32.744-18.265v-11.87h6.376V49.11h-6.376V35.641h-11.797V49.11h-6.376V18.974h6.376v11.87h11.797zm38.557-3.877c-1.778-1.998-4.468-3.197-7.2-3.197-6.115 0-9.628 5.195-9.628 10.392 0 5.076 3.643 10.152 9.585 10.152 2.733 0 5.465-1.319 7.243-3.197v6.994c-2.385 1.039-4.771 1.799-7.417 1.799-9.194 0-16.005-7.314-16.005-15.628 0-8.553 6.55-16.107 16.136-16.107 2.559 0 5.074.64 7.286 1.758v7.034zm24.461 22.942c-9.976 0-16.179-7.034-16.179-15.908 0-8.953 6.42-15.828 16.179-15.828s16.179 6.875 16.179 15.828c0 8.874-6.203 15.908-16.179 15.908zm0-25.94c-6.028 0-9.585 4.916-9.585 9.792 0 4.637 2.516 10.353 9.585 10.353 7.07 0 9.586-5.716 9.586-10.353 0-4.876-3.557-9.792-9.586-9.792zm49.357 6.435h-.088l-7.416 19.105h-2.212l-7.157-19.105h-.086l-2.906 18.705h-6.419l5.508-30.936h4.511l8.067 19.864 7.721-19.864h4.598l4.901 30.936h-6.419l-2.603-18.705zm23.852 18.705h-6.376V18.974h8.675c6.854 0 11.32 2.517 11.32 9.353 0 6.395-3.773 9.512-10.453 9.512h-3.166v11.27zm0-16.147h1.301c3.773 0 5.812-.759 5.812-4.676 0-3.877-2.429-4.437-5.985-4.437h-1.128v9.113z"/><path fill="#FFF" d="M49.434 66.167h-30.65c-9.47 0-17.175-7.705-17.175-17.176V18.342c0-9.471 7.705-17.175 17.175-17.175h30.65c9.47 0 17.175 7.705 17.175 17.175v30.649c0 9.471-7.705 17.176-17.175 17.176zM18.784 6.988c-6.261 0-11.354 5.093-11.354 11.354v30.649c0 6.262 5.093 11.354 11.354 11.354h30.65c6.261 0 11.354-5.093 11.354-11.354V18.342c0-6.261-5.093-11.354-11.354-11.354h-30.65z"/></svg>